Coordinates
version=1
nRows=50
nColumns=24
inDegrees=yes

Units are S.I. units (second, meters, Newtons, ...)
If the header above contains a line with 'inDegrees', this indicates whether rotational values are in degrees (yes) or radians (no).

endheader
time	pelvis_tilt	pelvis_list	pelvis_rotation	pelvis_tx	pelvis_ty	pelvis_tz	hip_flexion_r	hip_adduction_r	hip_rotation_r	knee_angle_r	ankle_angle_r	subtalar_angle_r	mtp_angle_r	hip_flexion_l	hip_adduction_l	hip_rotation_l	knee_angle_l	ankle_angle_l	subtalar_angle_l	mtp_angle_l	lumbar_extension	lumbar_bending	lumbar_rotation
2.900000	10.096237	2.542976	-178.708090	0.208798	0.852636	-1.208869	15.162412	-9.822017	-35.820976	-12.703873	1.205830	11.496833	0.000000	17.367414	-16.195252	-28.720683	-15.472882	3.081343	15.499596	0.000000	3.954709	2.980988	1.006129
2.905000	10.065764	2.540293	-178.680657	0.208629	0.852651	-1.208912	15.092369	-9.812862	-35.832364	-12.661570	1.247910	11.520978	0.000000	17.339721	-16.192587	-28.717103	-15.481918	3.095908	15.449938	0.000000	3.928054	2.968739	0.967294
2.910000	10.060627	2.543218	-178.678169	0.208455	0.852668	-1.208920	15.076983	-9.807333	-35.870495	-12.665831	1.264355	11.505676	0.000000	17.327991	-16.197105	-28.720222	-15.490627	3.090148	15.433517	0.000000	3.940631	2.958994	1.000702
2.915000	10.049334	2.553209	-178.700389	0.208267	0.852687	-1.208892	15.073581	-9.803933	-35.897457	-12.708041	1.301854	11.492228	0.000000	17.290043	-16.205431	-28.722073	-15.473315	3.078047	15.404448	0.000000	3.941173	2.978288	1.045474
2.920000	10.007623	2.532268	-178.727928	0.208075	0.852723	-1.208898	15.034148	-9.821383	-35.874841	-12.734531	1.347301	11.534612	0.000000	17.207289	-16.179298	-28.724661	-15.447104	3.041541	15.247545	0.000000	3.908797	2.957528	1.083968
2.925000	10.008639	2.500824	-178.713577	0.207969	0.852695	-1.208904	15.027559	-9.855938	-35.888929	-12.736459	1.355571	11.520375	0.000000	17.209108	-16.150819	-28.699982	-15.475845	3.071925	15.248901	0.000000	3.914162	2.924330	1.055062
2.930000	10.001354	2.464887	-178.717981	0.207936	0.852644	-1.208867	15.031785	-9.902569	-35.853759	-12.761040	1.338173	11.535035	0.000000	17.190781	-16.093570	-28.687176	-15.463138	3.124061	15.184993	0.000000	3.974171	2.740675	1.446399
2.935000	10.002256	2.463686	-178.713179	0.207859	0.852648	-1.208926	15.032841	-9.899041	-35.852310	-12.766011	1.337102	11.534726	0.000000	17.189168	-16.095232	-28.686599	-15.460338	3.123938	15.184116	0.000000	3.973914	2.733150	1.447494
2.940000	10.003041	2.469107	-178.731760	0.207770	0.852680	-1.208950	15.052118	-9.897973	-35.834771	-12.805650	1.332063	11.535629	0.000000	17.171153	-16.100328	-28.685671	-15.439440	3.124983	15.174620	0.000000	3.973839	2.742241	1.460078
2.945000	10.011041	2.479149	-178.777604	0.207666	0.852699	-1.208986	15.075184	-9.884567	-35.808370	-12.828732	1.347426	11.541903	0.000000	17.156682	-16.120629	-28.720265	-15.435786	3.118015	15.123812	0.000000	3.983793	2.764706	1.494105
2.950000	10.015615	2.476307	-178.799115	0.207593	0.852692	-1.209006	15.079717	-9.885351	-35.811194	-12.825392	1.346946	11.541016	0.000000	17.151808	-16.121758	-28.716822	-15.441210	3.117325	15.122161	0.000000	3.982937	2.768666	1.496418
2.955000	10.032042	2.481344	-178.839960	0.207556	0.852649	-1.209101	15.094578	-9.863071	-35.748933	-12.800543	1.277615	11.579313	0.000000	17.162990	-16.142542	-28.738827	-15.465282	3.151592	15.074410	0.000000	3.996306	2.777051	1.537289
2.960000	10.039197	2.488385	-178.861306	0.207539	0.852638	-1.209165	15.095566	-9.843649	-35.731913	-12.774679	1.236919	11.594198	0.000000	17.173844	-16.160080	-28.753671	-15.489883	3.157541	15.046171	0.000000	3.992636	2.790206	1.533411
2.965000	10.045071	2.488713	-178.884582	0.207497	0.852665	-1.209160	15.099161	-9.841219	-35.735802	-12.764800	1.233565	11.595085	0.000000	17.172597	-16.162264	-28.751723	-15.490473	3.157382	15.044600	0.000000	3.988876	2.798797	1.535137
2.970000	10.060870	2.556740	-178.948316	0.207480	0.852715	-1.209237	15.110887	-9.743455	-35.739304	-12.718518	1.150555	11.652931	0.000000	17.180325	-16.251185	-28.773153	-15.500535	3.142281	14.976021	0.000000	3.995827	2.879852	1.619727
2.975000	10.079317	2.574373	-178.985719	0.207454	0.852747	-1.209247	15.112613	-9.708331	-35.758264	-12.661892	1.131347	11.675835	0.000000	17.194020	-16.284829	-28.776183	-15.515641	3.153900	14.967841	0.000000	4.004968	2.906392	1.653164
2.980000	10.081032	2.623425	-178.994697	0.207484	0.852766	-1.209302	15.086784	-9.637058	-35.784188	-12.593133	1.069016	11.731916	0.000000	17.216161	-16.339641	-28.759075	-15.546852	3.158241	14.930481	0.000000	3.982400	2.955974	1.628482
2.985000	10.088159	2.616363	-179.005620	0.207507	0.852772	-1.209269	15.069676	-9.630413	-35.789325	-12.533566	1.033354	11.762349	0.000000	17.242819	-16.340224	-28.754320	-15.596003	3.171289	14.919235	0.000000	3.969729	2.950294	1.626426
2.990000	10.091771	2.662594	-179.021132	0.207505	0.852796	-1.209272	15.043341	-9.565630	-35.843340	-12.460724	0.954467	11.838092	0.000000	17.266233	-16.399862	-28.736533	-15.640058	3.215915	14.886833	0.000000	3.958130	3.004362	1.634987
2.995000	10.099927	2.712209	-179.035250	0.207513	0.852827	-1.209261	15.030998	-9.501032	-35.890349	-12.408572	0.955328	11.889650	0.000000	17.291175	-16.459427	-28.723393	-15.665438	3.177127	14.850363	0.000000	3.948610	3.061193	1.637674
3.000000	10.101003	2.750526	-179.034747	0.207523	0.852856	-1.209266	15.010715	-9.449915	-35.952214	-12.361539	0.940861	11.940934	0.000000	17.325717	-16.509568	-28.680773	-15.724763	3.188198	14.811906	0.000000	3.931561	3.101752	1.634944
3.005000	10.107481	2.743526	-179.030187	0.207563	0.852864	-1.209254	15.001006	-9.449006	-35.963134	-12.320485	0.928896	11.956061	0.000000	17.361806	-16.510426	-28.671322	-15.773728	3.192912	14.804565	0.000000	3.918357	3.092581	1.633311
3.010000	10.120139	2.743885	-178.999091	0.207631	0.852844	-1.209239	14.993411	-9.447574	-36.028379	-12.281880	0.868677	11.977856	0.000000	17.420741	-16.510167	-28.605604	-15.831452	3.238035	14.800131	0.000000	3.909150	3.089261	1.573177
3.015000	10.131495	2.741996	-178.971428	0.207709	0.852814	-1.209250	14.990001	-9.444986	-36.055124	-12.251505	0.873622	12.000578	0.000000	17.486523	-16.515908	-28.545645	-15.908852	3.263189	14.793199	0.000000	3.896001	3.075492	1.548860
3.020000	10.175837	2.744121	-178.959583	0.207795	0.852777	-1.209298	15.042247	-9.440601	-36.106192	-12.256471	0.893967	11.997487	0.000000	17.576698	-16.526922	-28.493447	-15.966765	3.234429	14.754841	0.000000	3.831817	3.244534	1.061671
3.025000	10.193093	2.756070	-178.967471	0.207882	0.852729	-1.209270	15.080997	-9.433546	-36.141323	-12.289433	0.949051	11.993421	0.000000	17.640987	-16.551553	-28.440709	-16.050501	3.269422	14.689336	0.000000	3.819971	3.262368	1.065872
3.030000	10.223847	2.754765	-178.967169	0.208018	0.852643	-1.209237	15.139725	-9.445904	-36.146045	-12.333969	1.000444	12.012383	0.000000	17.727532	-16.556679	-28.348414	-16.137352	3.299819	14.587961	0.000000	3.818988	3.254847	1.077994
3.035000	10.235501	2.730117	-178.939346	0.208179	0.852570	-1.209213	15.175106	-9.489390	-36.192042	-12.381980	1.062485	11.982797	0.000000	17.806319	-16.534058	-28.253106	-16.228401	3.318321	14.519585	0.000000	3.789148	3.221812	1.049514
3.040000	10.259503	2.722325	-178.920238	0.208378	0.852462	-1.209256	15.229197	-9.503964	-36.169892	-12.430506	1.104381	11.978828	0.000000	17.907185	-16.537310	-28.137092	-16.338261	3.373123	14.428767	0.000000	3.770593	3.198143	1.043186
3.045000	10.269188	2.708030	-178.908330	0.208567	0.852394	-1.209275	15.291742	-9.543057	-36.180358	-12.531140	1.182001	11.926817	0.000000	17.990911	-16.538196	-28.048531	-16.451786	3.381970	14.352798	0.000000	3.732065	3.176742	1.033960
3.050000	10.299740	2.699484	-178.937696	0.208853	0.852285	-1.209232	15.402956	-9.578201	-36.118080	-12.651743	1.226507	11.933031	0.000000	18.102103	-16.551427	-27.960519	-16.590365	3.420489	14.210331	0.000000	3.792661	2.996650	1.564058
3.055000	10.311841	2.671751	-178.934569	0.209097	0.852205	-1.209203	15.500670	-9.648367	-36.104275	-12.809239	1.323852	11.873452	0.000000	18.189782	-16.536238	-27.871242	-16.706259	3.440631	14.125319	0.000000	3.751709	2.967039	1.571371
3.060000	10.373104	2.625950	-178.953494	0.209426	0.852036	-1.209176	15.655371	-9.727002	-35.992569	-12.940892	1.350570	11.841120	0.000000	18.337477	-16.491399	-27.689116	-16.836111	3.482551	13.911041	0.000000	3.753706	2.922631	1.603960
3.065000	10.359313	2.602682	-178.943578	0.209694	0.851906	-1.209205	15.726858	-9.789872	-35.904337	-13.094391	1.398879	11.797901	0.000000	18.425953	-16.493009	-27.579724	-16.999000	3.553222	13.808809	0.000000	3.674790	2.889681	1.602375
3.070000	10.354200	2.583690	-178.931926	0.210020	0.851770	-1.209271	15.811512	-9.847546	-35.829523	-13.248280	1.446409	11.753169	0.000000	18.529114	-16.507389	-27.517540	-17.167662	3.618614	13.758357	0.000000	3.593731	2.861758	1.577632
3.075000	10.426059	2.562244	-178.927107	0.210384	0.851584	-1.209320	16.000039	-9.906155	-35.654955	-13.428583	1.485043	11.574268	0.000000	18.724781	-16.499333	-27.322951	-17.337454	3.645592	13.537361	0.000000	3.512816	3.020572	1.086423
3.080000	10.387347	2.585393	-178.960499	0.210743	0.851490	-1.209320	16.085119	-9.927190	-35.518945	-13.636308	1.592800	11.525733	0.000000	18.805435	-16.569828	-27.230610	-17.556341	3.710545	13.436936	0.000000	3.472970	2.880185	1.629350
3.085000	10.368963	2.587521	-178.987182	0.211108	0.851391	-1.209298	16.192426	-9.983150	-35.431947	-13.858024	1.668841	11.466970	0.000000	18.908938	-16.614606	-27.139366	-17.772590	3.781472	13.359455	0.000000	3.372014	2.898481	1.683861
3.090000	10.400532	2.575317	-179.014863	0.211566	0.851215	-1.209333	16.357139	-10.035223	-35.234277	-14.060344	1.723552	11.379608	0.000000	19.095335	-16.646496	-26.967950	-18.032544	3.863081	13.225695	0.000000	3.312017	2.891162	1.709215
3.095000	10.432530	2.592868	-179.012202	0.212012	0.851026	-1.209431	16.502647	-10.033555	-34.974510	-14.220232	1.735304	11.052959	0.000000	19.313058	-16.707575	-26.751501	-18.319363	3.895081	12.932421	0.000000	3.168627	3.073244	1.244928
3.100000	10.411566	2.607172	-179.005917	0.212430	0.850885	-1.209474	16.602520	-10.070384	-34.858797	-14.431948	1.818312	11.000572	0.000000	19.476246	-16.782204	-26.611331	-18.624967	4.009170	12.899786	0.000000	3.063972	3.107044	1.165874
3.105000	10.381585	2.650354	-179.027302	0.212888	0.850734	-1.209424	16.718724	-10.087532	-34.740797	-14.680946	1.895300	10.946893	0.000000	19.658352	-16.907867	-26.507903	-18.995123	4.127276	12.837055	0.000000	3.000921	2.998090	1.699713
3.110000	10.383580	2.664080	-179.035544	0.213333	0.850586	-1.209419	16.862889	-10.131036	-34.616182	-14.926841	2.003517	10.853360	0.000000	19.856230	-16.981689	-26.357455	-19.314615	4.169848	12.757764	0.000000	2.831987	3.163736	1.345546
3.115000	10.452095	2.716974	-179.040696	0.213910	0.850331	-1.209428	17.082590	-10.122855	-34.435766	-15.148693	2.011272	10.617985	0.000000	20.175829	-17.097082	-26.135609	-19.715696	4.242236	12.538021	0.000000	2.795151	3.237931	1.329301
3.120000	10.409443	2.716718	-179.021528	0.214410	0.850121	-1.209421	17.183361	-10.187181	-34.301561	-15.407373	2.130757	10.525851	0.000000	20.369508	-17.165992	-25.957080	-20.115021	4.395419	12.501585	0.000000	2.630000	3.260321	1.287488
3.125000	10.398347	2.734028	-179.006353	0.214916	0.849886	-1.209407	17.318500	-10.233191	-34.167105	-15.663280	2.253843	10.416363	0.000000	20.613342	-17.256724	-25.785480	-20.530940	4.508250	12.429383	0.000000	2.512654	3.279931	1.297091
3.130000	10.410458	2.771485	-178.999003	0.215486	0.849586	-1.209378	17.500619	-10.270553	-34.047137	-15.963323	2.408219	10.308814	0.000000	20.892894	-17.370873	-25.607006	-20.959291	4.615051	12.347886	0.000000	2.406846	3.327606	1.297836
3.135000	10.412091	2.824815	-178.990160	0.216026	0.849274	-1.209323	17.676539	-10.297372	-33.934668	-16.287128	2.588249	10.204841	0.000000	21.172258	-17.498105	-25.398710	-21.410519	4.736734	12.225375	0.000000	2.305062	3.385247	1.335166
3.140000	10.425975	2.859203	-178.987428	0.216617	0.848935	-1.209222	17.885615	-10.354757	-33.801976	-16.643416	2.722444	10.055244	0.000000	21.472021	-17.606790	-25.211538	-21.878388	4.837423	12.089673	0.000000	2.208666	3.425624	1.379493
3.145000	10.407616	2.866104	-178.938781	0.217231	0.848599	-1.209179	18.036285	-10.438028	-33.696844	-16.961317	2.913753	9.967101	0.000000	21.774909	-17.694235	-25.016273	-22.394624	5.003048	12.061655	0.000000	2.070135	3.426234	1.366448
